# xmcd
#
# Track frame offsets:
#	150
#	15095
#	32589
#	51085
#	67238
#	84606
#	100317
#	120458
#	140737
#	155875
#	170176
#	187571
#	212937
#	225691
#	248007
#	265634
#	280506
#
# Disc length: 3995 seconds
#
# Revision: 0
# Processed by: cddbd v1.5.2PL0 Copyright (c) Steve Scherf et al.
# Submitted via: dBpowerAMP V4.0
#
DISCID=e70f9911
DTITLE=Various Artist - Country Hits 2009
DYEAR=2009
DGENRE=Country
TTITLE0=Lee Ann Womack - Last Call 
TTITLE1=Billy Ray Cyrus - Ready, Set, Don't Go (Feat. Miley Cyrus)
TTITLE2=Paul Brandt - Worth Fighting For 
TTITLE3=Sugarland - All I Want To Do 
TTITLE4=Willie Mack - Golden Years 
TTITLE5=Gary Allan - Learning How To Bend 
TTITLE6=Doc Walker - That Train
TTITLE7=Jessie Farrell - Best Of Me 
TTITLE8=Alex J. Robinson - That's Who I Am 
TTITLE9=Jaydee Bixby - Old Fashioned Girl 
TTITLE10=Blake Shelton - Home 
TTITLE11=Kevin Costner And Modern West - Superman 
TTITLE12=Gord Bamford - Postcard From Pasadena 
TTITLE13=Aaron Pritchett - How Do I Get There 
TTITLE14=Johnny Reid - Thank You 
TTITLE15=Jason Blaine - My First Car 
TTITLE16=Rascal Flatts - Every Day 
EXTD=
EXTT0=
EXTT1=
EXTT2=
EXTT3=
EXTT4=
EXTT5=
EXTT6=
EXTT7=
EXTT8=
EXTT9=
EXTT10=
EXTT11=
EXTT12=
EXTT13=
EXTT14=
EXTT15=
EXTT16=
PLAYORDER=
